<?xml version="1.0" standalone="no"?>
<!DOCTYPE svg PUBLIC "-//W3C//DTD SVG 20010904//EN"
 "http://www.w3.org/TR/2001/REC-SVG-20010904/DTD/svg10.dtd">
<svg version="1.0" xmlns="http://www.w3.org/2000/svg"
 width="232.000000pt" height="232.000000pt" viewBox="0 0 232.000000 232.000000"
 preserveAspectRatio="xMidYMid meet">
<metadata>
Created by potrace 1.14, written by Peter Selinger 2001-2017
</metadata>
<g transform="translate(0.000000,232.000000) scale(0.100000,-0.100000)"
fill="#000000" stroke="none">
<path d="M0 1870 l0 -450 37 -15 c81 -34 133 -95 133 -157 0 -21 -1 -21 -33 9
-36 34 -77 63 -89 63 -16 0 -7 -86 12 -123 23 -43 14 -47 -29 -11 l-31 26 0
-36 c0 -32 4 -37 45 -55 48 -21 85 -69 85 -110 l0 -24 -22 20 c-25 23 -81 53
-98 53 -13 0 -13 -55 1 -83 6 -12 23 -33 37 -45 l27 -24 -38 7 c-32 5 -37 3
-37 -13 0 -15 6 -17 35 -14 55 7 101 -6 134 -37 39 -36 41 -54 5 -41 -30 12
-121 13 -128 2 -8 -14 44 -71 82 -91 l36 -19 -32 -7 c-37 -8 -66 0 -105 27
l-27 19 0 -53 0 -53 52 3 c29 2 118 10 197 18 214 21 302 19 407 -12 105 -30
180 -71 245 -135 53 -52 76 -92 95 -164 19 -69 17 -79 -5 -23 -40 103 -145
195 -280 247 -123 47 -199 53 -473 33 l-238 -16 1 -111 c1 -108 1 -109 14 -63
25 93 69 142 135 154 l35 6 -28 -26 c-37 -36 -72 -105 -59 -118 13 -13 96 14
124 39 17 15 18 15 18 -1 0 -64 -81 -117 -180 -120 l-60 -1 0 -172 0 -173
1160 0 1160 0 0 203 c-1 156 -4 208 -15 227 -19 32 -19 44 0 36 12 -4 15 6 15
58 l0 63 -147 7 c-81 3 -200 11 -265 17 -186 17 -333 -15 -462 -101 -87 -59
-130 -105 -163 -174 l-24 -51 5 38 c8 60 41 119 104 183 143 146 326 188 662
150 69 -8 162 -17 208 -21 l82 -6 0 92 0 92 -30 -41 c-46 -64 -101 -91 -157
-77 l-27 6 32 16 c38 18 95 80 87 94 -8 13 -102 11 -127 -2 -27 -15 -33 -5
-13 25 27 41 89 59 168 48 l67 -9 0 45 c0 42 -1 44 -18 30 -19 -16 -67 -38
-83 -38 -6 0 1 14 15 30 27 33 54 106 42 117 -11 11 -79 -17 -108 -45 -28 -26
-28 -26 -28 -3 0 57 53 108 138 130 l42 12 0 584 0 585 -1160 0 -1160 0 0
-450z m1007 -122 c59 -43 93 -101 93 -161 0 -54 -15 -70 -25 -27 -9 40 -72
107 -87 92 -6 -6 -10 -43 -10 -82 1 -63 -1 -70 -14 -59 -45 37 -57 136 -28
222 9 26 18 47 21 47 3 0 25 -15 50 -32z m329 -20 c26 -76 24 -146 -5 -186
-12 -18 -25 -32 -29 -32 -4 0 -7 29 -7 65 0 86 -13 97 -59 49 -20 -21 -39 -48
-43 -62 -4 -18 -8 -20 -14 -10 -13 21 -10 76 6 107 14 29 110 121 125 121 5 0
16 -24 26 -52z m242 -197 c4 -87 3 -89 -28 -125 -43 -48 -64 -49 -44 -1 7 19
14 53 14 75 0 32 -4 40 -18 40 -19 0 -79 -51 -99 -85 -11 -18 -12 -16 -12 18
-1 45 16 82 56 118 40 38 106 70 118 58 6 -6 12 -50 13 -98z m-797 70 c74 -47
92 -73 96 -138 l5 -58 -24 38 c-24 38 -72 77 -95 77 -18 0 -17 -72 1 -115 16
-39 12 -43 -22 -19 -36 25 -52 68 -52 136 0 117 14 129 91 79z m-253 -90 c67
-43 92 -81 92 -135 l0 -36 -48 50 c-61 64 -82 65 -82 7 0 -23 8 -59 18 -79 16
-31 17 -35 3 -31 -32 11 -72 58 -82 96 -6 23 -7 66 -4 103 9 78 17 80 103 25z
m1316 2 c8 -54 7 -93 -4 -134 -12 -41 -52 -89 -75 -89 -14 0 -14 3 0 30 8 16
15 49 15 75 0 60 -17 59 -80 -5 l-50 -49 0 39 c0 30 8 48 32 75 30 35 121 95
144 95 6 0 14 -17 18 -37z m-675 -42 c32 -44 61 -113 61 -144 0 -15 -8 -42
-17 -60 l-17 -32 -8 38 c-9 42 -33 92 -47 102 -14 8 -41 -37 -55 -92 l-12 -48
-18 46 c-14 37 -16 54 -7 83 13 48 69 136 86 136 8 0 23 -13 34 -29z m1132
-73 c1 -13 2 -36 3 -53 4 -61 -14 -113 -50 -145 -51 -44 -65 -41 -40 8 8 15
16 43 17 62 6 52 -25 52 -84 0 -39 -35 -47 -38 -47 -22 0 59 53 123 130 156
50 22 70 20 71 -6z m-2016 -52 c28 -12 65 -39 83 -60 26 -30 32 -45 32 -84 l0
-47 -19 31 c-22 36 -71 74 -96 74 -15 0 -17 -7 -12 -50 3 -27 13 -61 23 -75
19 -29 6 -33 -32 -9 -41 28 -54 65 -54 159 0 97 0 97 75 61z m1779 -7 c18 -92
-9 -186 -63 -213 -41 -22 -41 -21 -20 21 10 21 19 54 19 75 0 52 -27 51 -85
-5 l-45 -44 0 38 c0 47 42 99 109 134 62 33 77 32 85 -6z m-1250 -87 c41 -24
66 -61 72 -107 l5 -40 -23 26 c-30 35 -105 73 -113 58 -12 -18 6 -83 32 -118
l26 -33 -24 7 c-67 19 -104 73 -115 167 -10 85 -6 90 58 72 29 -9 66 -23 82
-32z m786 -6 c0 -96 -40 -171 -102 -195 -33 -13 -34 -9 -7 28 11 15 23 47 26
69 5 40 4 42 -21 42 -17 0 -42 -15 -71 -41 -40 -37 -45 -39 -45 -20 0 38 27
87 60 111 34 24 140 61 153 53 4 -2 7 -23 7 -47z m-1076 -17 c65 -43 96 -92
96 -149 l-1 -45 -22 30 c-31 42 -68 75 -83 75 -20 0 -28 -47 -16 -99 6 -25 8
-48 6 -50 -9 -9 -54 44 -65 77 -18 54 3 192 29 192 5 0 30 -14 56 -31z m1305
-26 c6 -31 11 -72 11 -92 0 -42 -29 -94 -61 -112 -20 -10 -21 -9 -15 7 22 56
18 134 -7 134 -17 0 -74 -56 -82 -81 -11 -33 -25 -21 -25 22 0 25 9 55 21 76
21 33 112 103 135 103 6 0 16 -26 23 -57z m-841 30 c85 -52 130 -124 117 -185
l-7 -32 -19 36 c-20 39 -76 91 -89 83 -18 -11 -21 -82 -6 -119 17 -42 6 -47
-29 -12 -44 44 -55 143 -24 223 10 27 21 29 57 6z m360 -38 c19 -73 8 -147
-28 -185 -39 -42 -50 -38 -34 11 14 39 11 104 -5 114 -13 8 -78 -53 -92 -86
l-13 -33 -8 29 c-15 58 15 115 91 171 25 18 53 33 61 31 9 -1 20 -23 28 -52z
m-1049 -141 c46 -41 63 -79 59 -129 l-3 -38 -25 38 c-14 21 -38 48 -53 59 -24
18 -29 19 -37 6 -13 -20 -13 -82 0 -114 13 -35 -3 -33 -34 4 -40 48 -47 137
-17 213 11 27 11 27 41 12 17 -9 48 -32 69 -51z m1791 18 c23 -84 4 -188 -38
-211 -30 -16 -33 -14 -22 15 13 34 13 111 0 119 -17 10 -57 -21 -88 -67 l-27
-42 -3 33 c-5 47 4 75 35 112 31 37 112 91 124 83 5 -2 13 -21 19 -42z m-1175
-91 c51 -23 83 -58 92 -101 l6 -35 -31 27 c-36 30 -100 54 -112 42 -12 -12 14
-81 41 -110 28 -30 19 -41 -20 -25 -62 26 -111 114 -111 197 l0 36 48 -7 c26
-4 65 -15 87 -24z m572 -26 c-9 -84 -40 -140 -91 -164 -61 -30 -86 -28 -48 4
35 29 68 103 53 118 -13 13 -74 -9 -111 -40 -27 -22 -30 -23 -30 -6 0 26 35
79 65 99 26 17 111 41 149 43 17 1 18 -5 13 -54z m218 -29 c-26 -53 -77 -94
-241 -192 -116 -68 -166 -106 -226 -166 -43 -42 -78 -75 -78 -72 0 2 12 27 26
55 37 74 95 126 224 204 159 96 235 150 273 195 37 45 48 31 22 -24z m-1113
18 c35 -39 94 -81 238 -168 144 -87 198 -132 241 -199 55 -85 49 -102 -13 -33
-58 65 -130 121 -203 159 -74 37 -226 140 -257 173 -23 25 -55 104 -42 104 3
0 19 -16 36 -36z m622 -142 c20 -58 20 -85 -1 -125 l-17 -32 -7 42 c-10 54
-36 103 -54 103 -18 0 -36 -32 -51 -95 l-12 -50 -17 40 c-23 53 -8 122 42 190
l36 49 33 -38 c18 -21 40 -59 48 -84z m-838 -4 c34 -18 112 -39 248 -66 226
-46 295 -74 366 -148 47 -49 45 -49 -29 -2 -62 39 -144 63 -309 92 -210 37
-275 58 -313 102 -18 21 -33 57 -22 52 5 -2 31 -15 59 -30z m1570 -3 c-37 -57
-105 -82 -326 -121 -159 -28 -264 -61 -323 -100 -52 -34 -57 -25 -11 20 67 65
143 94 360 137 135 27 217 49 254 67 30 15 57 26 59 25 2 -1 -4 -14 -13 -28z
m-1368 -225 c39 -24 43 -45 7 -36 -28 7 -112 -11 -121 -26 -10 -16 46 -57 94
-69 l42 -11 -31 -32 c-57 -57 -90 -156 -51 -156 22 0 82 36 105 63 19 22 19
22 14 -15 -3 -20 -13 -48 -22 -62 -18 -27 -99 -70 -152 -81 l-33 -7 0 64 c0
73 24 134 64 165 31 24 33 33 8 33 -24 0 -99 49 -137 89 -26 29 -28 33 -13 47
21 21 114 52 158 53 19 1 50 -8 68 -19z m438 -50 c62 -42 104 -80 104 -96 0
-6 -7 -17 -16 -25 -8 -7 -26 -33 -38 -58 l-23 -45 -8 34 c-16 72 -57 146 -113
203 l-57 58 51 -19 c28 -10 73 -34 100 -52z m821 55 c28 -8 62 -24 75 -35 l23
-19 -46 -47 c-31 -31 -64 -52 -99 -64 l-52 -18 31 -18 c17 -10 39 -37 50 -59
19 -41 32 -157 19 -170 -10 -11 -105 20 -143 47 -37 24 -65 72 -65 108 0 21 2
20 36 -10 34 -30 73 -50 96 -50 13 0 1 78 -17 105 -7 11 -27 34 -44 51 l-31
32 42 11 c24 6 57 22 73 36 25 21 28 27 15 35 -27 18 -89 31 -115 24 -36 -9
-32 12 8 36 38 24 76 25 144 5z m-500 -47 c-58 -69 -91 -136 -112 -228 -16
-69 -16 -80 -2 -135 18 -72 16 -75 -74 -75 -85 0 -94 10 -94 104 1 86 25 145
91 223 55 64 188 157 232 163 2 0 -17 -24 -41 -52z m841 16 c31 -20 59 -68 78
-133 21 -71 13 -78 -70 -64 -70 12 -119 42 -142 85 -22 42 -17 49 20 27 43
-25 90 -39 104 -30 14 9 -31 109 -53 117 -8 3 -15 11 -15 16 0 13 47 2 78 -18z
m-1290 -121 c35 -26 79 -91 87 -128 5 -27 4 -28 -7 -11 -34 51 -77 91 -113
107 -44 21 -139 25 -195 9 l-35 -10 25 20 c57 43 187 51 238 13z m674 17 c20
-6 47 -19 60 -30 l23 -20 -28 10 c-47 17 -157 12 -203 -9 -22 -10 -57 -38 -78
-62 -31 -36 -37 -39 -31 -19 13 46 54 99 92 119 42 22 108 26 165 11z m-1188
-9 c3 -5 -5 -12 -18 -15 -27 -7 -86 -69 -86 -91 0 -20 81 -20 120 0 34 17 35
16 18 -20 -18 -39 -76 -65 -145 -65 -75 0 -103 8 -103 30 0 31 75 135 111 153
37 18 94 23 103 8z m1627 -7 c32 -16 109 -125 109 -154 0 -22 -28 -30 -100
-30 -63 0 -114 22 -144 62 -25 35 -18 43 20 23 32 -17 110 -20 119 -5 8 13
-63 89 -91 96 -13 3 -21 10 -18 15 9 14 72 10 105 -7z m-1208 -54 c48 -24 71
-74 72 -157 0 -95 -9 -104 -74 -73 -75 35 -112 78 -118 137 l-5 48 27 -33 c26
-32 73 -62 96 -62 20 0 5 94 -21 131 -13 18 -20 30 -14 28 5 -3 22 -11 37 -19z
m701 -27 c-13 -25 -24 -62 -24 -81 0 -32 2 -34 28 -27 32 8 79 50 88 79 7 21
7 21 14 1 20 -57 -33 -134 -121 -175 -63 -30 -72 -22 -72 67 -1 84 23 138 73
165 19 10 35 18 36 18 1 0 -9 -21 -22 -47z"/>
</g>
</svg>
